# xmcd
#
# Track frame offsets:
#   225
#   14896
#   28935
#   49203
#   64002
#   80220
#   93388
#   109309
#   127106
#   148598
#   164407
#   184817
#
# Disc length: 3027 seconds
#
# Revision: 0
# Processed by: cddbd v1.5.2PL0 Copyright (c) Steve Scherf et al.
# Submitted via: GXTranscoder 2.0.1939
#
DISCID=b80bd00c
DTITLE=Amy Macdonald - A Corious Thing
DYEAR=2011
DGENRE=Blues
TTITLE0=Don t tell me that its over
TTITLE1=Spark
TTITLE2=No roots
TTITLE3=Love Love
TTITLE4=An Ordinary Life
TTITLE5=Give it all up
TTITLE6=My only one
TTITLE7=This pretty Face
TTITLE8=Troubled Soul
TTITLE9=Next Big Thing
TTITLE10=Your Time will come
TTITLE11=What Happiness means to me
EXTD=
EXTT0=
EXTT1=
EXTT2=
EXTT3=
EXTT4=
EXTT5=
EXTT6=
EXTT7=
EXTT8=
EXTT9=
EXTT10=
EXTT11=
PLAYORDER=
